<?xml version="1.0" encoding="utf-8"?>
<!-- Generated by IcoMoon.io -->
<!DOCTYPE svg PUBLIC "-//W3C//DTD SVG 1.1//EN" "http://www.w3.org/Graphics/SVG/1.1/DTD/svg11.dtd">
<svg version="1.1" xmlns="http://www.w3.org/2000/svg" xmlns:xlink="http://www.w3.org/1999/xlink" width="78" height="32" viewBox="0 0 78 32">
<path fill="#444444" d="M54.359 27.468h23.067v-0.67h-23.067v0.67z"></path>
<path fill="#444444" d="M0.15 27.468h23.066v-0.67h-23.066v0.67z"></path>
<path fill="#444444" d="M41.332 26.601c-0.436 0.745-0.84 1.111-1.351 1.339 0.215-0.246 0.852-1.25 0.852-2.065 0-0.455-0.202-0.878-0.726-0.878-0.474 0-0.808 0.347-0.808 0.354l0.107-0.272h-0.998l-1.831 4.528h1.004l1.326-3.277c0.202-0.29 0.48-0.53 0.714-0.53 0.133 0 0.196 0.082 0.196 0.265 0 0.575-0.619 1.819-0.966 1.819-0.114 0-0.208-0.133-0.208-0.133l-0.322 0.297c0 0 0.227 0.392 1.023 0.392 1.105 0 1.869-0.745 2.343-1.585-0.051-0.12-0.221-0.24-0.354-0.253z"></path>
<path fill="#444444" d="M25.926 24.795c0.758 0 1.206-0.524 1.206-1.092 0-0.493-0.347-1.048-1.206-1.048-0.398 0-0.745 0.126-1.023 0.316-0.032-0.152-0.044-0.316-0.038-0.493l-0.644-0.088c-0.019 0.398 0.032 0.796 0.158 1.149-0.164 0.278-0.246 0.6-0.246 0.928 0 0.272 0.063 0.442 0.063 0.442-0.941-0.088-1.901 0.714-1.901 1.85 0 1.023 0.77 1.857 1.857 1.857 1.225 0 2.21-1.092 1.749-2.494l-0.84 0.24c0.265 0.619-0.145 1.37-0.878 1.37-0.581 0-0.922-0.455-0.922-0.998 0-0.568 0.36-0.947 0.903-0.947 0.455 0 0.751 0.259 0.751 0.259l0.48-0.714c-0.038-0.025-0.354-0.303-0.366-0.84 0.24 0.189 0.543 0.303 0.897 0.303zM25.863 23.513c0.24 0 0.417 0.114 0.417 0.278 0 0.177-0.196 0.272-0.41 0.272-0.234 0-0.436-0.101-0.606-0.284 0.164-0.177 0.385-0.265 0.6-0.265z"></path>
<path fill="#444444" d="M35.087 26.778c-0.448 0.796-1.13 1.219-1.774 1.219-0.802 0-0.619-0.657-0.619-0.657 1.168 0.152 1.673-0.215 1.939-0.789 0.404-0.909-0.202-1.377-0.916-1.377-1.351 0-1.989 1.484-1.989 2.324 0 0.688 0.423 1.118 1.301 1.118 1.212 0 1.983-0.827 2.412-1.585-0.051-0.12-0.221-0.24-0.354-0.253zM33.666 25.976c0.215 0 0.177 0.171 0.095 0.36-0.126 0.297-0.316 0.562-0.897 0.461 0 0 0.335-0.821 0.802-0.821z"></path>
<path fill="#444444" d="M30.018 26.778c-0.448 0.777-0.884 1.219-1.137 1.219-0.107 0-0.227-0.082 0.063-0.808l0.309-0.751c0.133-0.328 0.189-0.543 0.189-0.714 0-0.335-0.208-0.549-0.606-0.549-0.537 0-1.004 0.385-1.036 0.417l0.133-0.335h-1.004l-1.326 3.277h1.004l0.852-2.103c0.265-0.303 0.556-0.448 0.707-0.448 0.095 0 0.171 0.051 0.171 0.139 0 0.095-0.101 0.335-0.221 0.638l-0.095 0.234c-0.448 1.118-0.177 1.623 0.48 1.623 0.758 0 1.364-0.707 1.869-1.585-0.051-0.12-0.221-0.24-0.354-0.253z"></path>
<path fill="#444444" d="M35.416 27.030c0.177-0.309 0.335-0.619 0.505-1.017 0.17 0.145 0.309 0.259 0.309 0.385 0 0.032-0.006 0.095-0.057 0.221l-0.202 0.512c-0.455 1.118 0.069 1.484 0.562 1.484 0.695 0 1.2-0.745 1.686-1.585-0.051-0.12-0.221-0.24-0.354-0.253-0.486 0.827-0.789 1.219-0.966 1.219-0.088 0-0.24-0.101 0.051-0.808l0.177-0.448c0.057-0.145 0.076-0.24 0.076-0.316 0-0.474-0.777-0.827-1.036-1.055l0.202-0.505-0.41-0.227c-0.259 0.082-0.594 0.423-0.594 0.745 0 0.158 0.082 0.265 0.196 0.385-0.183 0.404-0.36 0.764-0.499 1.010 0.051 0.12 0.221 0.24 0.354 0.253z"></path>
<path fill="#444444" d="M31.944 26.778c-0.455 0.77-0.884 1.219-1.193 1.219-0.139 0-0.278-0.088 0.019-0.808l0.777-1.932h0.499l0.208-0.505h-0.505l0.303-0.745h-1.004l-0.303 0.745h-0.518l-0.208 0.505h0.524l-0.714 1.762c-0.455 1.13-0.063 1.598 0.562 1.598 0.796 0 1.44-0.764 1.907-1.585-0.051-0.12-0.221-0.24-0.354-0.253z"></path>
<path fill="#444444" d="M45.465 24.991c0.297 0 0.556-0.259 0.556-0.556 0-0.309-0.259-0.549-0.556-0.549-0.309 0-0.556 0.24-0.556 0.549 0 0.297 0.246 0.556 0.556 0.556zM45.933 26.778c-0.448 0.777-0.884 1.219-1.137 1.219-0.107 0-0.221-0.088 0.069-0.808l0.777-1.932h-1.004l-0.714 1.762c-0.461 1.143-0.057 1.598 0.518 1.598 0.726 0 1.358-0.733 1.844-1.585-0.051-0.12-0.221-0.24-0.354-0.253z"></path>
<path fill="#444444" d="M41.579 27.030c0.177-0.309 0.335-0.619 0.505-1.017 0.17 0.145 0.309 0.259 0.309 0.385 0 0.032-0.006 0.095-0.057 0.221l-0.202 0.512c-0.455 1.118 0.069 1.484 0.562 1.484 0.695 0 1.2-0.745 1.686-1.585-0.051-0.12-0.221-0.24-0.354-0.253-0.486 0.827-0.789 1.219-0.966 1.219-0.088 0-0.24-0.101 0.051-0.808l0.177-0.448c0.057-0.145 0.076-0.24 0.076-0.316 0-0.474-0.777-0.827-1.036-1.055l0.202-0.505-0.41-0.227c-0.259 0.082-0.594 0.423-0.594 0.745 0 0.158 0.082 0.265 0.196 0.385-0.183 0.404-0.36 0.764-0.499 1.010 0.051 0.12 0.221 0.24 0.354 0.253z"></path>
<path fill="#444444" d="M46.278 27.030c0.126-0.221 0.29-0.549 0.455-0.871-0.013 0.316 0.013 0.707 0.013 0.985 0 0.613-0.126 0.783-0.328 0.783-0.088 0-0.139-0.025-0.196-0.088l-0.556 0.347c0.006 0.006 0.284 0.429 1.067 0.429 1.061 0 1.68-0.758 2.141-1.585-0.051-0.12-0.221-0.24-0.354-0.253-0.284 0.493-0.543 0.834-0.878 1.099 0.019-0.076 0.032-0.164 0.032-0.341-0.006-0.398-0.139-1.389 0.025-2.28l-0.871-0.221c-0.24 0.53-0.65 1.313-0.903 1.743 0.051 0.12 0.221 0.24 0.354 0.253z"></path>
<path fill="#444444" d="M51.722 26.778c-0.448 0.796-1.13 1.219-1.774 1.219-0.802 0-0.619-0.657-0.619-0.657 1.168 0.152 1.673-0.215 1.939-0.789 0.404-0.909-0.202-1.377-0.916-1.377-1.351 0-1.989 1.484-1.989 2.324 0 0.688 0.423 1.118 1.301 1.118 1.212 0 1.983-0.827 2.412-1.585-0.051-0.12-0.221-0.24-0.354-0.253zM50.301 25.976c0.215 0 0.177 0.171 0.095 0.36-0.126 0.297-0.316 0.562-0.897 0.461 0 0 0.335-0.821 0.802-0.821z"></path>
<path fill="#444444" d="M52.063 27.030c0.126-0.221 0.29-0.549 0.455-0.871-0.013 0.316 0.013 0.707 0.013 0.985 0 0.613-0.126 0.783-0.328 0.783-0.088 0-0.139-0.025-0.196-0.088l-0.556 0.347c0.006 0.006 0.284 0.429 1.067 0.429 1.061 0 1.68-0.758 2.141-1.585-0.051-0.12-0.221-0.24-0.354-0.253-0.284 0.493-0.543 0.834-0.878 1.099 0.019-0.076 0.032-0.164 0.032-0.341-0.006-0.398-0.139-1.389 0.025-2.28l-0.871-0.221c-0.24 0.53-0.65 1.313-0.903 1.743 0.051 0.12 0.221 0.24 0.354 0.253z"></path>
<path fill="#444444" d="M22.049 16.267v3.432h2.398v-6.409h-3.342c-1.105 0-1.894-0.826-1.894-1.677v-7.516c0-0.997 0.756-1.703 1.894-1.703h4.287c1.074 0 1.894 0.707 1.894 1.672v4.172h-2.839v-3.293h-2.398v5.79h3.343c1.074 0 1.894 0.792 1.894 1.703v8.141c0 0.909-0.851 1.675-1.894 1.675h-4.287c-1.012 0-1.894-0.766-1.894-1.675v-4.311h2.838z"></path>
<path fill="#444444" d="M17.551 22.254v-2.838h-7.902v2.838h7.902z"></path>
<path fill="#444444" d="M9.649 22.254h2.838v-19.859h-2.838v19.859z"></path>
<path fill="#444444" d="M7.902 22.254v-2.838h-7.902v2.838h7.902z"></path>
<path fill="#444444" d="M2.532 22.254h2.838v-19.859h-2.838v19.859z"></path>
<path fill="#444444" d="M7.902 5.232v-2.838h-7.902v2.838h7.902z"></path>
<path fill="#444444" d="M67.957 22.254v-2.838h-7.902v2.838h7.902z"></path>
<path fill="#444444" d="M60.055 22.254h2.838v-19.859h-2.838v19.859z"></path>
<path fill="#444444" d="M58.192 22.254v-2.838h-7.902v2.838h7.902z"></path>
<path fill="#444444" d="M50.29 22.254h2.838v-19.859h-2.838v19.859z"></path>
<path fill="#444444" d="M69.987 21.033l0.011-10.287-0.028-6.753c-0.004-0.935 0.709-1.598 1.777-1.598h4.023c1.008 0 1.777 0.663 1.777 1.569l0.028 3.615h-2.664l-0.028-3.008h-2.25l-0.008 6.401-0.102 7.247z"></path>
<path fill="#444444" d="M69.981 3.615l0.011 10.287-0.028 6.753c-0.004 0.935 0.709 1.598 1.777 1.598h4.023c1.008 0 1.777-0.663 1.777-1.569l0.028-3.615h-2.664l-0.028 3.008h-2.25l-0.008-6.401-0.102-7.247z"></path>
<path fill="#444444" d="M36.519 7.435c-0.089 0.152-0.527 0.898-0.546 0.93 0.006 1.653 0.679 2.678 0.866 2.933 0.106-0.114 1.832-1.968 1.875-2.014-0.832-0.075-1.922-1.479-2.195-1.849zM41.062 7.435c-0.274 0.37-1.363 1.774-2.196 1.849 0.042 0.046 1.769 1.9 1.875 2.014 0.187-0.255 0.86-1.28 0.865-2.933-0.019-0.032-0.457-0.778-0.545-0.93zM39.98 10.886l0.004-0.052-1.179-1.46-0.053 0.010-1.175 1.456 0.011 0.045c0 0 0.323 0.511 0.796 1.010l-1.451 7.509 1.867 1.899 1.869-1.899-1.457-7.542c0.46-0.487 0.768-0.977 0.768-0.977zM29.798 21.559l8.992-17.503 8.991 17.503h-17.983zM38.789 2.393l-0.227 0.439h-0.008c-3.358 6.1-6.584 12.298-9.789 18.488-0 0.046 0.008 0.091 0.015 0.129 0 0.002-0 0.005 0 0.008l-0.326 0.614v0.038c0 0.146 0.005 0.144 0.849 0.144h18.995c0.829 0 0.826 0.002 0.826-0.144v-0.038l-0.311-0.599c0.008-0.573-0.822-1.333-0.94-1.909-2.861-5.354-5.572-10.791-8.524-16.093l-0.561-1.076z"></path>
</svg>
