<?xml version="1.0" encoding="utf-8"?>
<!-- Generated by IcoMoon.io -->
<!DOCTYPE svg PUBLIC "-//W3C//DTD SVG 1.1//EN" "http://www.w3.org/Graphics/SVG/1.1/DTD/svg11.dtd">
<svg version="1.1" xmlns="http://www.w3.org/2000/svg" xmlns:xlink="http://www.w3.org/1999/xlink" width="32" height="32" viewBox="0 0 32 32">
<path fill="#444444" d="M19.798 0l-0.069 3.725-8.871-2.706 3.846 3.784-11.702-1.533 8.851 4.073-6.866 0.418c0 0 12.090 2.846 12.099 2.866-0.032 0.202-0.045 0.407-0.040 0.617 0.051 2.129 2.289 3.917 4.883 4.221l-0.256 2.4-7.42 3.143c-0.34-0.124-0.754-0.205-1.205-0.204-1.118 0.002-2.017 0.459-2.003 1.020s0.931 1.016 2.049 1.014c1.118-0.002 2.017-0.459 2.003-1.020-0.001-0.023-0.008-0.045-0.011-0.068l6.461-2.712-0.54 4.956-7.103 5.808c-0.462-0.247-0.998-0.311-1.724-0.31-1.379 0.002-2.479 0.566-2.462 1.258s1.146 1.254 2.525 1.252c1.379-0.002 2.485-0.566 2.468-1.258-0.001-0.026-0.008-0.053-0.011-0.079l6.772-5.48c0 0 4.507 4.286 4.471 4.285-1.379 0.002-2.485 0.566-2.468 1.258s1.152 1.254 2.531 1.252c1.379-0.002 2.485-0.566 2.468-1.258-0.008-0.34-0.291-0.647-0.735-0.872l-5.688-5.758 0.545-5.007 3.564 1.778c-0.723 0.155-1.221 0.52-1.211 0.94 0.014 0.561 0.931 1.016 2.049 1.014s2.011-0.459 1.997-1.020c-0.009-0.367-0.406-0.689-0.993-0.867l-5.286-2.939 0.255-2.432c3.123-0.37 4.466-1.934 4.665-4.207 0.047-0.538-0.18-1.902-0.18-1.902l-1.753-9.099-1.925 4.059zM20.565 1.934l3.563 4.114 1.303-3.29 0.82 5.516c-0.594-0.751-2.206-1.287-3.93-1.284-2.249 0.004-4.148 1.095-4.913 2.645l-7.503-1.5 6.16-0.070-8.287-3.457 9.51 1.448-3.549-3.361 7.042 2.353z"></path>
</svg>
