<?xml version="1.0" encoding="UTF-8" standalone="no"?>
<svg
   xmlns:dc="http://purl.org/dc/elements/1.1/"
   xmlns:cc="http://creativecommons.org/ns#"
   xmlns:rdf="http://www.w3.org/1999/02/22-rdf-syntax-ns#"
   xmlns:svg="http://www.w3.org/2000/svg"
   xmlns="http://www.w3.org/2000/svg"
   viewBox="0 0 989.59998 169.175"
   height="169.175"
   width="989.59998"
   xml:space="preserve"
   version="1.1"
   id="svg2"><metadata
     id="metadata8"><rdf:RDF><cc:Work
         rdf:about=""><dc:format>image/svg+xml</dc:format><dc:type
           rdf:resource="http://purl.org/dc/dcmitype/StillImage" /></cc:Work></rdf:RDF></metadata><defs
     id="defs6"><clipPath
       id="clipPath18"
       clipPathUnits="userSpaceOnUse"><path
         id="path20"
         d="m 0,0 7916.76,0 0,1353 L 0,1353 0,0 Z" /></clipPath></defs><g
     transform="matrix(1.25,0,0,-1.25,0,169.175)"
     id="g10"><g
       transform="scale(0.1,0.1)"
       id="g12"><g
         id="g14"><g
           clip-path="url(#clipPath18)"
           id="g16"><path
             id="path22"
             style="fill:#231f20;fill-opacity:1;fill-rule:evenodd;stroke:none"
             d="m 7579.41,1297.37 278.05,-220.26 c -47.02,-15.95 -92.85,-36.18 -133.09,-58.25 -40.23,-22.075 -74.85,-46.016 -99.55,-67.848 -47.56,-41.797 -61.2,-80.371 -55.13,-120.371 36.77,-43.993 46.83,-104.907 25.94,-159.965 -19.84,-54.453 -67.01,-110.352 -142.7,-164.297 -36.06,-25.715 -77.74,-50.305 -121.04,-70.801 -108.28,-44.836 -223.4,-74.348 -339.98,-87.379 -59.8,-6.519 -119.72,-8.199 -172.44,-9.121 -103.76,-0.918 -188.66,-3.59 -282.4,-19.269 l -171.58,-50.239 -119.06,57.168 c -78.6,17.723 -159.52,28.047 -242.47,32.512 -62.03,-0.77 -124.15,3.73 -180.91,12.512 -56.78,8.789 -108.25,21.843 -151.61,39.343 -43.39,17.5 -78.69,39.446 -110.06,66.829 -37.61,44.57 -45.6,108.535 -18.6,165.41 13.26,29.265 34.51,58.051 62.68,85.879 28.13,27.843 63.2,54.695 104.11,80.054 40.91,25.364 87.68,49.192 135.89,68.668 23.83,20.367 47.67,40.692 62.27,62.942 14.59,22.25 19.95,46.414 25.32,70.553 -8.3,22.01 -16.63,44 -30.38,63.87 -13.74,19.88 -32.93,37.62 -52.1,55.37 l 561.29,195.63 c 38.51,-17.59 78.71,-30.78 123.94,-40.09 45.24,-9.28 95.52,-14.67 148.42,-16.25 105.27,-3.14 219.81,8.92 330.11,36.62 26.98,-14.26 55.29,-25.43 87.54,-33.94 32.24,-8.53 68.4,-14.41 106.98,-17.68 115.16,-9.54 246.22,3.63 370.56,42.4 z m -33.37,18.75 c -34.79,-10.26 -95.01,-25.37 -145.05,-30.52 -72.88,-8.66 -148.35,-9.86 -224.53,3.47 -22.05,3.86 -42.63,8.75 -61.21,15.18 -18.53,6.45 -35,14.46 -44.88,19.17 -19.67,9.57 -19.54,8 -29.44,9.64 -9.13,0.98 -19.37,0.89 -29.29,-0.51 -5.05,-0.69 -10.02,-1.73 -28.9,-5.93 -18.8,-4.17 -51.47,-11.48 -84.57,-16.9 -64.24,-10.35 -131.82,-14.57 -197.12,-12.64 -31.68,1.02 -62.27,3.67 -91.21,7.64 -28.93,3.98 -56.21,9.31 -81.01,16.64 -24.81,7.32 -47.1,16.65 -59.86,21.96 -12.74,5.3 -15.89,6.53 -19.47,7.48 -19.87,4.69 -42.95,3.14 -65.36,-4.39 L 5822.81,1150.8 c -9.18,-3.73 -17.5,-5.62 -28.01,-17.64 -2.52,-3.48 -3.73,-7.23 -3.24,-10.63 0.47,-3.47 2.69,-6.58 12.68,-16.31 9.98,-9.72 27.74,-26.05 41.22,-44.06 13.49,-18.05 22.69,-37.79 28.45,-58.67 -4.59,-20.076 -9.17,-40.154 -21.08,-58.76 -11.9,-18.617 -31.13,-35.734 -50.34,-52.859 -51.06,-21.117 -100.52,-46.879 -143.71,-74.199 -43.17,-27.313 -80.11,-56.188 -109.67,-86.078 -58.23,-58.629 -88.49,-123.344 -80.18,-185.789 4.06,-30.61 17.38,-60.075 36.97,-83.086 33.95,-29.953 72.22,-53.989 119.32,-73.196 47.1,-19.191 103.02,-33.582 164.81,-43.312 61.79,-9.699 129.38,-14.781 196.94,-14.102 74.03,-4.097 146.42,-13.25 216.94,-28.73 L 6318.23,248.5 c 20.59,-8.75 45.03,-7.441 69.51,-0.801 l 163.31,47.84 c 40.96,6.371 82.13,10.949 122.95,13.231 40.8,2.32 81.21,2.339 134.46,3.261 104.77,0.719 251.7,11.141 379.39,46.262 62.61,16.328 122.15,36.379 180.21,60.547 46.5,21.965 91.32,48.23 130.18,75.746 119.16,84.883 178.22,174.852 165.49,266.699 -4.48,29.606 -17.21,58.164 -35.73,81.039 -2.11,16.188 0.13,32.957 7.42,49.59 7.29,16.637 19.66,33.18 41.31,52.391 21.67,19.187 52.65,41.09 88.94,60.315 36.35,19.24 78.06,35.83 100.98,44.95 22.92,9.13 27.05,10.77 30.73,12.61 5.78,3.14 10.71,5.74 16.19,12.93 3.72,6.18 5.79,11.73 -3.06,19.55 l -278.09,220.25 c -16.35,10.82 -35.17,10.62 -55.53,8.45 -7.41,-1.03 -14.74,-2.76 -30.85,-7.24" /><path
             id="path24"
             style="fill:#231f20;fill-opacity:1;fill-rule:evenodd;stroke:none"
             d="m 1000.9,382.324 c 39.77,-22.515 77.86,-41.613 117.37,-56.875 64.63,-25.027 121.77,-38.57 180.86,-45.82 15.06,-2.078 30.21,-4.168 75.16,-3.938 44.97,0.207 119.79,2.77 190.79,17.778 71.02,14.992 138.24,42.422 176.53,59.383 38.28,16.925 47.61,23.371 56.81,29.804 17.21,12.395 34.16,22.942 50.25,32.563 7.49,4.754 14.69,9.859 19.26,13.211 10.11,7.578 14.17,10.371 20.19,17.988 4.95,9.48 5.22,22.727 -9.62,29.578 -7.95,4.199 -17.1,6.953 -26.22,8.313 -26.44,-15.508 -51.35,-39.004 -76.34,-53.504 -5.77,-3.598 -11.68,-7.153 -32.53,-17.207 -20.83,-10.078 -56.63,-26.672 -94.66,-38.575 -38.06,-11.906 -78.32,-19.101 -119.05,-21.964 -40.77,-2.84 -82.01,-1.34 -107.56,0.886 -25.54,2.18 -35.37,5.063 -45.1,7.817 -123.04,34.422 -245.74,117.617 -369.68,200.672 -23.161,16.035 -45.751,33.027 -67.731,50.39 -23.164,18.477 -50.328,34.024 -66.824,58.074 1.199,3.735 5.461,3.02 9.367,4.067 311.158,34.89 621.848,90.676 933.188,186.215 94.28,33.203 184.93,62.648 284.15,143.02 43.75,39.53 58.72,76.69 31.92,117.48 -3.98,6.51 -9,13.11 -14.81,19.9 -7.44,8.88 -20.06,20.54 -34.7,31.69 -29.09,21.3 -55.71,33.47 -80.63,43.04 -126.21,44.42 -269.63,53.5 -404.59,65.18 -335.77,21.94 -671.571,9.44 -1008.497,-42.66 -156.566,-27.49 -311.98,-61.18 -470.168,-129.5 -10.75,-4.9 -21.3436,-10.04 -29.3827,-14.14 -21.3867,-11.04 -33.5781,-18.12 -50.8359,-30.45 -17.0312,-11.61 -34.3789,-32.05 -36.10937,-42.04 -2.82031,-7.73 -2.265624,-21.32 2.55469,-32.067 6.57418,-14.789 20.49998,-46.442 48.01558,-65.516 10.5,-6.637 21.0079,-9.234 31.5313,-9.328 54.5034,32.469 111.3324,52.234 169.4064,70.109 315.625,91.432 629.426,136.982 946.045,165.392 234.94,16.23 469.55,33.39 705.95,-20.7 18.06,-4.6 48.6,-14.64 66.05,-24.23 7.31,-3.89 17.7,-9.71 26.87,-19.66 6.36,-6.61 12.08,-19.36 7.76,-31.89 -1.34,-7.04 -13.6,-24.83 -25.27,-34.8 -25.39,-22.694 -49.96,-37.084 -79.73,-53.248 -214.67,-106.758 -431.67,-140.739 -647.93,-179.2 -157.81,-25.144 -314.952,-45.355 -474.476,-57.5 -0.98,-0.066 -2,3.727 1.532,5.243 127.254,85.855 255.504,172.621 381.664,230.785 36.05,16.637 73.1,30.715 111.25,42.31 38.17,11.57 77.55,20.54 97.63,25.16 31.31,7.33 18.96,4.28 24.24,6.75 0.2,1.8 -1.75,1.91 -3.33,2.91 -0.57,0.33 -1.15,0.73 -8.1,2.82 -6.95,2.09 -20.25,5.89 -33.67,9.44 -13.44,3.59 -26.94,6.97 -46.55,10.99 -40.8,8.58 -98.76,17.17 -149.57,18.17 -86.15,1.75 -173.799,2.06 -256.506,-29.23 -40.863,-14.75 -75.797,-31.55 -117.367,-54.43 C 688.164,950.656 581.852,871.148 483.535,779.387 440.566,739.855 394.148,691.977 352.754,642.629 283.508,561.301 223.789,473.852 187.566,387.082 c 48.372,-32.937 91.079,-78.73 137.024,-84.301 6.488,-1.383 13.086,-2.453 19.765,-3.109 6.665,-0.66 13.395,-0.942 17.415,-1.043 7.996,0.121 10.171,-1.098 14.187,2.859 27.766,36.114 52.727,75.504 81.555,112.157 30.597,40.214 66.863,85.14 105.863,125.492 22.875,23.922 47.391,46.683 71.863,69.425 2.266,1.29 6.688,2.086 9.239,0.157 28.585,-14.082 54.461,-33.91 81.484,-51.106 92.32,-57.781 183.551,-123.121 274.939,-175.289" /><path
             id="path26"
             style="fill:#231f20;fill-opacity:1;fill-rule:evenodd;stroke:none"
             d="m 4606.97,753.004 c -7.1,-0.844 -14.23,-1.422 -18.56,-1.777 -10.53,-0.977 -13.46,-1.465 -19.12,-0.18 -2.78,-0.289 -4.97,3.844 -0.04,7.422 26.84,34.511 53.43,57.808 81.72,78.394 18.52,13.168 36.86,24.496 51.48,32.309 12.68,6.91 25.61,13.238 38.73,19.016 15.48,6.968 38.62,15.386 64.25,22.671 40.35,10.438 83.84,21.567 125.25,10.395 10.95,-2.313 30.4,-25.094 14.84,-40.442 -43.95,-40.976 -92.65,-55.324 -139.56,-73.867 -65.84,-23.425 -132.56,-43.906 -198.99,-53.941 z m -2123.81,96.164 c 16.15,2.816 30.51,9.144 47.68,-7.242 3.36,-15.059 -1.52,-21.875 -8.26,-38.485 -32.27,-63.941 -108.09,-142.046 -168.64,-181.625 -13.18,2.422 -33.38,8.821 -43.31,26.965 -8.67,18.059 -4.02,36.977 4.21,55.699 10.2,27.25 56.88,80.614 91.75,103.954 22.32,16.035 39.53,26.121 55.92,33.421 7.04,3.086 13.96,5.622 20.65,7.313 z m -274,-61.652 c 0.22,-0.469 -0.09,-0.645 -0.51,-1.157 -10.8,-23.785 -18.61,-47.547 -21.52,-71.507 -3.17,-22.079 3.22,-59.325 34.11,-93.383 17.39,-17.5 40.55,-26.746 61.93,-36.535 -59.98,-35.379 -119.03,-48.993 -180.81,-36.36 -14.22,4.645 -33.6,11.285 -40.78,36.16 -8.75,54.809 32.61,112.95 87.41,167.715 18.62,15.348 37.56,31.625 55.59,36.645 1.58,-0.559 2.58,-0.446 4.58,-1.578 z m 2078.26,-40.75 c -80.26,-44.864 -157.95,-99.473 -239.47,-132.567 -16.3,-3.527 -33.02,-8.902 -54.25,11.574 -18.12,24.875 -1.51,51.079 14.01,76.774 7.33,11.793 21.92,32.445 39.13,54.363 11.79,14.348 24.36,31.449 37.49,41.621 -0.13,0.422 -0.29,0.867 -0.46,1.285 100.26,105.379 197.4,177.934 298.02,250.414 26.99,18.39 54.84,35.72 82.29,52.66 345.54,14.04 691.14,24.32 1036.63,34.56 -1.88,3.89 -0.16,1.09 -4.37,3.6 -8.16,4.08 -22.92,10.9 -35.32,15.74 -21.67,8.48 -57.33,22.61 -80.48,23.55 -139.86,4.77 -279.75,-5.29 -419.64,-7 -134.92,-2.84 -269.81,-6.22 -404.7,-10.11 68.27,35.94 134.87,62.12 203.71,82.82 -0.13,0.38 -0.62,1.06 -1.17,1.71 -17.01,7.46 -34.45,13.75 -52.5,18.65 -18.04,4.93 -36.62,8.51 -51.09,10.77 -14.45,2.25 -24.8,3.2 -35.15,4.05 -10.34,0.82 -20.74,1.55 -36.38,1.97 -15.67,0.42 -36.62,0.56 -57.52,-0.06 -20.89,-0.65 -41.75,-2.07 -56.79,-3.33 -27.38,-2.4 -40.7,-4.67 -59.89,-8.22 -72.22,-8.93 -140.28,-68.34 -208.05,-116.13 -102.19,-4.37 -204.4,-10 -306.6,-5.29 -9.17,-1.42 -19.43,2.87 -25.69,-8.61 4.08,-14.84 30.94,-25.94 47.94,-37.09 40.54,-27.4 82.68,-25.47 124.36,-23.54 l 72.74,4.36 C 4054.31,1037.58 3995.41,983.902 3936,919.168 3886.04,865.047 3840.35,806.324 3806.35,749.477 3708.3,700.438 3613.81,624.84 3516.8,605.59 c -20.61,-2.426 -36.36,-6.492 -52.99,5.75 -9.59,11.609 -1.95,29.492 1.33,38.531 4.33,11.035 11.79,24.492 20.84,37.285 10.65,16.035 39.17,47.082 65.17,67.957 52.41,48.883 105.43,77.262 157.86,101.028 13.79,5.507 27.67,10.214 41.58,14.902 8.24,11.566 -12.33,20.141 -22.02,24.027 -69.02,26.469 -135.73,33.782 -205.02,35.645 -39.86,-4.949 -81.41,-47.481 -120.77,-74.688 -109.04,-79.66 -218.66,-170.117 -325.52,-221.285 -29.41,-14.144 -56.35,-28.09 -89.86,-37.465 -9.86,-1.175 -21.81,-8.168 -34.2,6.911 -3.67,5.351 -6.2,19.585 2.04,29.421 17.21,45.375 72.09,97.094 114.68,131.301 62.14,50.899 124.52,91.762 187.48,126.762 -6.15,19.187 -24.07,17.168 -37.37,21.406 -58.43,11.262 -116.79,19.817 -175.28,18.613 -68.66,-14.527 -144.05,-70.531 -217.6,-138.492 -22.28,-21.586 -43.07,-44.726 -62.28,-67.379 -76.62,-50.613 -149.24,-90.164 -227.92,-114.679 -3.86,-1.09 -6.95,-1.871 -10.06,-2.668 -6.93,-1.996 -26.03,-5.285 -45.85,-5.707 -12.2,-0.2 -24.44,0.933 -36.5,3.218 41.2,24.828 82.88,55.297 124.42,100.582 23.09,25.383 42.3,50.832 57.45,75.973 7.68,12.793 14.55,25.852 18.94,35.203 4.36,9.352 6.26,14.946 7.55,20.61 3.64,19.183 4.13,30 -6.22,44.257 -6.64,9.375 -23.76,23.364 -37.44,31.203 -112.18,55.434 -234.72,51.922 -353.05,41.883 -76.24,-8.925 -153.06,-31.89 -229.78,-73.015 -25.72,-13.641 -56.23,-32.336 -87.52,-56.789 -15.84,-12.461 -30.61,-25.805 -40.14,-34.801 -17.96,-17.078 -21.2,-21.875 -30.07,-32.113 -11.83,-14.321 -21.61,-28.868 -29.27,-43.372 -13.23,-22.429 -23.25,-64.671 -22.05,-100.492 2.91,-39.754 18.24,-64.226 49.06,-89.808 12.17,-10.371 36.82,-23.25 50.26,-27.473 10.08,-3.488 13.79,-4.668 22.61,-6.934 5.46,-1.394 12.92,-3.128 20.47,-4.679 16.97,-3.578 43.41,-7.035 72.17,-8.446 16.55,-0.75 33.12,-0.464 45.84,0.09 32.65,1.809 38.49,2.942 61.1,6.02 13.1,1.933 30.51,4.82 47.72,8.308 17.19,3.528 34.23,7.641 46.69,10.883 30.04,8.149 35.15,10.039 54.79,17.012 21.91,7.992 52.87,21.203 79.1,36.797 37.6,-6.485 75.82,-8.375 114.01,-5.195 83.56,7.195 150.91,37.308 225.46,73.554 -6.66,-15.39 -8.21,-22.879 -9.52,-38.222 0.26,-26.672 2.02,-41.774 28.78,-65.668 12.13,-9.973 30.64,-18.235 45.21,-22.454 24.7,-7.863 68.23,-12.39 105.34,-6.839 25.54,3.507 46.43,9.457 64.85,15.808 97.18,34.203 192.45,100.668 288.99,158.125 10.44,-2.64 -3.04,-21.254 -5.89,-31.512 -9.41,-26.32 -13.99,-47.996 -6.15,-73.824 8.68,-29.355 35.7,-51.656 58.62,-56.051 13.23,-3.378 19.16,-3.976 33.26,-5.445 12.97,-1.262 32.92,-1.574 54.45,-0.199 12.22,0.871 24.38,2.422 33.58,3.801 24.23,3.886 38.42,7.285 57.52,12.461 105.98,27.355 210.04,107.039 313.96,160.828 2.49,1.351 4.97,2.711 7.46,4.062 -9.81,-40.726 -21.34,-83.144 17.66,-125.008 42.14,-40.683 84.97,-44.617 131.8,-42.105 30.94,2.82 54.06,9.797 77.73,18.301 91.52,33 181.49,96.207 270.94,151.215 -3.46,-15.727 -4.4,-32.758 -2.55,-44.731 1.62,-12.945 8.28,-36.797 23.25,-52.031 30.13,-36.602 64.42,-44.125 96.45,-55.676 102.34,-28.25 211.8,-18.457 317.93,3.996 149.4,38.821 298.79,124.41 446.29,195.34 105.12,51.863 220.42,74.977 334.5,99.344 114.11,24.359 232.12,35.531 350.09,46.746 -0.72,11.594 -1.66,23.164 -2.77,34.73 C 5703.35,895.246 5568.3,880.258 5438.18,850.008 5308.07,819.762 5182.85,774.191 5057.67,728.641 4915.29,650.488 4777.35,586.66 4632.78,574.895 c -26.09,-1.067 -45.39,-2.333 -71.22,6.085 -5.52,2.352 -16.45,5.305 -28.56,20.743 -12.75,22.629 -18.01,49.945 -7.41,73.882 4.04,10.305 9.5,20.43 14.9,30.583 135.05,-2.973 277.22,46.191 415.47,107.156 26.32,13.609 52.1,25.097 83.98,57.41 21.82,25.625 25.5,41.726 11.62,66.687 -14.88,23.008 -34.33,26.297 -52.83,35.161 -187.5,66.328 -382.63,32.858 -577.81,-100.075 -39.98,-24.832 -77.93,-65.687 -106.55,-105.89 -1.85,-2.555 -3.56,-5.153 -5.32,-7.731 -7.21,-4.058 -14.43,-8.078 -21.63,-12.14" /><path
             id="path28"
             style="fill:#231f20;fill-opacity:1;fill-rule:evenodd;stroke:none"
             d="m 6084.49,747.742 c 14.26,23.27 43.5,42.258 68.64,57.781 6.05,3.711 12.15,7.375 24.63,13.571 12.48,6.222 31.34,14.972 51.08,21.832 19.76,6.883 40.44,11.859 55.01,14.832 28.39,5.578 38.64,5.508 57.1,6.019 27.36,0 63.53,-4.375 92.59,-24.05 19.29,-12.856 30.33,-32.559 30.2,-49.145 1.13,-28.027 -15.3,-69.668 -49.9,-107.934 -9.22,-10.48 -19.33,-20.539 -34.41,-33.175 -15.05,-12.661 -35.1,-27.942 -56.8,-41.332 -21.72,-13.391 -45.06,-24.895 -59.5,-31.516 -14.41,-6.598 -19.95,-8.348 -25.42,-10.238 -5.51,-1.91 -10.98,-3.977 -22.33,-6.746 -11.32,-2.754 -28.49,-6.2 -45.86,-7.157 -17.39,-0.929 -34.97,0.625 -47.88,2.399 -12.9,1.777 -21.14,3.777 -29.04,6.465 -16.51,6.129 -31.1,11.484 -43.69,30.8 -9.44,14.684 -12.82,34.293 -11.3,51.461 0.22,25.473 20.34,71.133 46.88,106.133 z m 203.94,228.434 c 74.5,36.504 153.23,67.954 228.89,83.944 37.51,7.67 77.6,-1 114.62,18.28 26.25,19.46 24.58,36.89 8.35,58.89 -8.28,9.66 -18.7,16.22 -27.99,21.53 -10.87,6.41 -28.81,13.77 -48.23,21.45 -36.97,14.66 -78.02,28.35 -123.45,25.96 -14.19,-0.49 -27.08,-2 -39.91,-3.78 -12.79,-1.82 -25.51,-3.86 -46.71,-9.1 -21.21,-5.2 -50.89,-13.59 -79.3,-24.37 -28.38,-10.79 -55.48,-23.96 -78.77,-36.57 -23.32,-12.62 -42.86,-24.65 -61.76,-37.25 -37.31,-24.76 -83.28,-59.91 -130.3,-105.972 -23.54,-23.383 -45.01,-48.258 -60.25,-67.403 -30.11,-38.508 -41.2,-58.609 -58.09,-87.344 -8.05,-14.324 -15.77,-29.425 -22.61,-44.769 -14.73,-32.848 -25.76,-70.426 -27.99,-110.309 -1.06,-21.301 0.96,-42.711 3.51,-57.965 6.76,-33.511 11.11,-41.464 23.37,-62.851 7.17,-11.348 17.74,-24.938 30.4,-37.129 12.61,-12.191 27.32,-22.965 43.46,-31.895 29.38,-16.035 60.45,-25.695 85.99,-30.711 11.54,-2.445 23.18,-4.73 46.9,-7.082 23.76,-2.351 59.57,-4.753 95.37,-4.621 61.47,0.215 122.41,7.414 184.68,24.914 41.61,12.418 93.71,33.848 147,66.336 26.89,16.77 51.54,36.09 70.24,53.149 18.7,17.054 31.44,31.844 42.51,47.367 50.39,72.355 60.6,137.645 28.15,200.297 -7.14,13.324 -16.92,27.601 -29,40.484 -41.66,43.793 -96.74,61.875 -147.17,71.403 -35.78,6.437 -72,8.589 -107.2,7.632 -45.31,-1.394 -84.1,-6.082 -121.1,-14.187 18.55,10.902 37.11,21.832 56.39,31.672" /><path
             id="path30"
             style="fill:#231f20;fill-opacity:1;fill-rule:evenodd;stroke:none"
             d="m 6942.95,726.152 c 14.26,23.297 43.52,42.289 68.62,57.786 6.04,3.71 12.19,7.351 24.63,13.57 12.5,6.219 31.34,14.992 51.1,21.855 19.76,6.86 40.43,11.836 55,14.809 28.39,5.574 38.63,5.508 57.08,6.062 27.36,-0.043 63.57,-4.441 92.59,-24.113 19.3,-12.84 30.38,-32.535 30.25,-49.101 1.13,-28.075 -15.33,-69.696 -49.93,-107.938 -9.23,-10.5 -19.34,-20.539 -34.42,-33.195 -15.06,-12.66 -35.09,-27.942 -56.81,-41.332 -21.68,-13.391 -45.03,-24.875 -59.45,-31.493 -14.46,-6.593 -19.97,-8.347 -25.48,-10.257 -5.46,-1.891 -10.96,-3.953 -22.29,-6.731 -11.32,-2.754 -28.52,-6.195 -45.88,-7.152 -17.39,-0.957 -34.93,0.601 -47.86,2.379 -12.92,1.777 -21.16,3.773 -29.06,6.461 -16.49,6.129 -31.08,11.504 -43.7,30.804 -9.43,14.676 -12.77,34.313 -11.26,51.43 0.19,25.5 20.33,71.156 46.87,106.156 z m 203.91,228.434 c 74.53,36.535 153.24,67.964 228.92,83.944 37.54,7.69 77.6,-0.99 114.64,18.28 26.21,19.46 24.56,36.89 8.33,58.89 -8.28,9.64 -18.72,16.26 -28.01,21.53 -10.86,6.41 -28.78,13.74 -48.21,21.45 -37,14.66 -78.04,28.36 -123.45,25.96 -14.2,-0.46 -27.1,-1.97 -39.89,-3.8 -12.83,-1.77 -25.54,-3.84 -46.75,-9.05 -21.16,-5.24 -50.88,-13.62 -79.26,-24.39 -28.38,-10.77 -55.49,-23.97 -78.81,-36.58 -23.31,-12.62 -42.83,-24.63 -61.77,-37.25 -37.31,-24.75 -83.28,-59.91 -130.25,-105.968 -23.56,-23.387 -45.04,-48.235 -60.27,-67.407 -30.12,-38.484 -41.2,-58.582 -58.1,-87.34 -8.06,-14.304 -15.77,-29.406 -22.6,-44.796 -14.73,-32.84 -25.76,-70.418 -28.01,-110.262 -1.05,-21.32 1.01,-42.727 3.55,-57.985 6.71,-33.511 11.07,-41.441 23.36,-62.847 7.16,-11.328 17.75,-24.942 30.36,-37.133 12.64,-12.176 27.32,-22.945 43.49,-31.891 29.41,-16.035 60.42,-25.695 85.97,-30.695 11.54,-2.461 23.22,-4.754 46.94,-7.105 23.72,-2.336 59.52,-4.731 95.34,-4.59 61.48,0.191 122.41,7.359 184.67,24.91 41.64,12.371 93.76,33.848 146.99,66.312 26.92,16.77 51.55,36.11 70.25,53.168 18.72,17.059 31.46,31.848 42.55,47.371 50.37,72.352 60.58,137.622 28.16,200.297 -7.15,13.278 -16.97,27.579 -29,40.457 -41.69,43.821 -96.74,61.899 -147.18,71.426 -35.82,6.418 -72.02,8.57 -107.22,7.664 -45.33,-1.422 -84.08,-6.109 -121.1,-14.238 18.56,10.926 37.11,21.828 56.36,31.668" /><g
             transform="scale(10,10)"
             id="g32"><text
               id="text34"
               style="font-variant:normal;font-size:27.99995804px;font-family:AkzidenzGroteskBE;-inkscape-font-specification:AkzidenzGroteskBE-Md;writing-mode:lr-tb;fill:#231f20;fill-opacity:1;fill-rule:nonzero;stroke:none"
               transform="matrix(1,0,0,-0.95000143,206.553,6.65)"><tspan
                 id="tspan36"
                 y="0"
                 x="0 19.963873 36.987286 52.27536 61.73922 78.762634 103.96281 112.25041 132.21428 149.23819 156.93781 165.3378 174.80116 183.08925 197.23524 207.84654 224.87042 239.01689 254.89243">Custom Built Trucks</tspan></text>
</g></g></g></g></g></svg>